<mxfile host="app.diagrams.net" modified="2022-04-29T18:24:02.610Z" agent="5.0 (Windows NT 10.0; Win64; x64) AppleWebKit/537.36 (KHTML, like Gecko) Chrome/100.0.4896.127 Safari/537.36" etag="1xU9bhPCgY2lGX6TGzpu" version="17.5.0" type="github">
  <diagram id="Dto1LwixQbTy5FbZoD5w" name="Page-1">
    <mxGraphModel dx="909" dy="851" grid="1" gridSize="10" guides="1" tooltips="1" connect="1" arrows="1" fold="1" page="1" pageScale="1" pageWidth="827" pageHeight="1169" math="0" shadow="0">
      <root>
        <mxCell id="0" />
        <mxCell id="1" parent="0" />
        <mxCell id="I17-rHQZrSn2T5uz6WZd-1" value="Class: Player&lt;br&gt;&lt;div style=&quot;text-align: left&quot;&gt;&lt;span&gt;Props:&lt;/span&gt;&lt;br&gt;&lt;/div&gt;&lt;ul&gt;&lt;li style=&quot;text-align: left&quot;&gt;&lt;span&gt;UID&lt;/span&gt;&lt;/li&gt;&lt;li style=&quot;text-align: left&quot;&gt;&lt;span&gt;first name (req. str)&lt;/span&gt;&lt;/li&gt;&lt;li style=&quot;text-align: left&quot;&gt;last name (req. str)&lt;/li&gt;&lt;li style=&quot;text-align: left&quot;&gt;email (str)&lt;/li&gt;&lt;li style=&quot;text-align: left&quot;&gt;phone (str)&lt;/li&gt;&lt;li style=&quot;text-align: left&quot;&gt;affiliated team (one to one)&lt;/li&gt;&lt;li style=&quot;text-align: left&quot;&gt;dynamic age on DO&lt;span style=&quot;color: rgba(0 , 0 , 0 , 0) ; font-family: monospace ; font-size: 0px&quot;&gt;%3CmxGraphModel%3E%3Croot%3E%3CmxCell%20id%3D%220%22%2F%3E%3CmxCell%20id%3D%221%22%20parent%3D%220%22%2F%3E%3CmxCell%20id%3D%222%22%20value%3D%22Class%3A%20Player%26lt%3Bbr%26gt%3B%26lt%3Bdiv%20style%3D%26quot%3Btext-align%3A%20left%26quot%3B%26gt%3B%26lt%3Bspan%26gt%3B%26lt%3Bbr%26gt%3B%26lt%3B%2Fspan%26gt%3B%26lt%3B%2Fdiv%26gt%3B%26lt%3Bdiv%20style%3D%26quot%3Btext-align%3A%20left%26quot%3B%26gt%3B%26lt%3Bspan%26gt%3BProps%3A%26lt%3B%2Fspan%26gt%3B%26lt%3B%2Fdiv%26gt%3B%26lt%3Bul%26gt%3B%26lt%3Bli%20style%3D%26quot%3Btext-align%3A%20left%26quot%3B%26gt%3B%26lt%3Bspan%26gt%3Bfirst%20name%20(req.%20str)%26lt%3B%2Fspan%26gt%3B%26lt%3B%2Fli%26gt%3B%26lt%3Bli%20style%3D%26quot%3Btext-align%3A%20left%26quot%3B%26gt%3Blast%20name%20(req.%20str)%26lt%3B%2Fli%26gt%3B%26lt%3Bli%20style%3D%26quot%3Btext-align%3A%20left%26quot%3B%26gt%3Bemail%20(str)%26lt%3B%2Fli%26gt%3B%26lt%3Bli%20style%3D%26quot%3Btext-align%3A%20left%26quot%3B%26gt%3Bphone%20(str)%26lt%3B%2Fli%26gt%3B%26lt%3Bli%20style%3D%26quot%3Btext-align%3A%20left%26quot%3B%26gt%3Baffiliated%20team%20(one%20to%20one)%26lt%3B%2Fli%26gt%3B%26lt%3Bli%20style%3D%26quot%3Btext-align%3A%20left%26quot%3B%26gt%3Bdynamic%20age%20on%20DOB%26lt%3B%2Fli%26gt%3B%26lt%3Bli%20style%3D%26quot%3Btext-align%3A%20left%26quot%3B%26gt%3B%26lt%3Bbr%26gt%3B%26lt%3B%2Fli%26gt%3B%26lt%3Bli%20style%3D%26quot%3Btext-align%3A%20left%26quot%3B%26gt%3Bskill%26lt%3B%2Fli%26gt%3B%26lt%3Bli%20style%3D%26quot%3Btext-align%3A%20left%26quot%3B%26gt%3Bweight%26lt%3B%2Fli%26gt%3B%26lt%3Bli%20style%3D%26quot%3Btext-align%3A%20left%26quot%3B%26gt%3Bdynamic%20match%20stats%26lt%3B%2Fli%26gt%3B%26lt%3Bli%20style%3D%26quot%3Btext-align%3A%20left%26quot%3B%26gt%3B%26lt%3Bbr%26gt%3B%26lt%3B%2Fli%26gt%3B%26lt%3B%2Ful%26gt%3B%22%20style%3D%22rounded%3D0%3BwhiteSpace%3Dwrap%3Bhtml%3D1%3B%22%20vertex%3D%221%22%20parent%3D%221%22%3E%3CmxGeometry%20x%3D%2220%22%20y%3D%22480%22%20width%3D%22220%22%20height%3D%22250%22%20as%3D%22geometry%22%2F%3E%3C%2FmxCell%3E%3CmxCell%20id%3D%223%22%20value%3D%22Class%3A%20Tournament%26lt%3Bbr%26gt%3B%26lt%3Bdiv%20style%3D%26quot%3Btext-align%3A%20left%26quot%3B%26gt%3B%26lt%3Bspan%26gt%3B%26lt%3Bbr%26gt%3B%26lt%3B%2Fspan%26gt%3B%26lt%3B%2Fdiv%26gt%3B%26lt%3Bdiv%20style%3D%26quot%3Btext-align%3A%20left%26quot%3B%26gt%3B%26lt%3Bspan%26gt%3BProps%3A%26lt%3B%2Fspan%26gt%3B%26lt%3B%2Fdiv%26gt%3B%26lt%3Bul%26gt%3B%26lt%3Bli%20style%3D%26quot%3Btext-align%3A%20left%26quot%3B%26gt%3B%26lt%3Bspan%26gt%3Bname%20(req.%20str)%26lt%3B%2Fspan%26gt%3B%26lt%3B%2Fli%26gt%3B%26lt%3Bli%20style%3D%26quot%3Btext-align%3A%20left%26quot%3B%26gt%3Bdate%20(req.%20date)%26lt%3B%2Fli%26gt%3B%26lt%3Bli%20style%3D%26quot%3Btext-align%3A%20left%26quot%3B%26gt%3Btype%20(sing%20elim%20%2F%20round%20robin)%26lt%3B%2Fli%26gt%3B%26lt%3Bli%20style%3D%26quot%3Btext-align%3A%20left%26quot%3B%26gt%3Brule%20set%20dropdown%26lt%3B%2Fli%26gt%3B%26lt%3Bul%26gt%3B%26lt%3Bli%20style%3D%26quot%3Btext-align%3A%20left%26quot%3B%26gt%3BEBI%26lt%3B%2Fli%26gt%3B%26lt%3Bli%20style%3D%26quot%3Btext-align%3A%20left%26quot%3B%26gt%3BPts%26lt%3B%2Fli%26gt%3B%26lt%3Bli%20style%3D%26quot%3Btext-align%3A%20left%26quot%3B%26gt%3BSub%20only%26lt%3B%2Fli%26gt%3B%26lt%3B%2Ful%26gt%3B%26lt%3Bli%20style%3D%26quot%3Btext-align%3A%20left%26quot%3B%26gt%3B%26lt%3Bbr%26gt%3B%26lt%3B%2Fli%26gt%3B%26lt%3Bli%20style%3D%26quot%3Btext-align%3A%20left%26quot%3B%26gt%3Bplayers%20(list)%26lt%3B%2Fli%26gt%3B%26lt%3Bli%20style%3D%26quot%3Btext-align%3A%20left%26quot%3B%26gt%3Bfee%20(optional%2C%20num%20dec)%26lt%3B%2Fli%26gt%3B%26lt%3Bli%20style%3D%26quot%3Btext-align%3A%20left%26quot%3B%26gt%3Bprizes%26lt%3B%2Fli%26gt%3B%26lt%3Bli%20style%3D%26quot%3Btext-align%3A%20left%26quot%3B%26gt%3Brounds%20(list%20of%20matches%20for%20each%20round)%26lt%3B%2Fli%26gt%3B%26lt%3B%2Ful%26gt%3B%22%20style%3D%22rounded%3D0%3BwhiteSpace%3Dwrap%3Bhtml%3D1%3B%22%20vertex%3D%221%22%20parent%3D%221%22%3E%3CmxGeometry%20x%3D%2220%22%20y%3D%22220%22%20width%3D%22220%22%20height%3D%22250%22%20as%3D%22geometry%22%2F%3E%3C%2FmxCell%3E%3C%2Froot%3E%3C%2FmxGraphModel%3E&lt;/span&gt;B&lt;/li&gt;&lt;li style=&quot;text-align: left&quot;&gt;&lt;br&gt;&lt;/li&gt;&lt;li style=&quot;text-align: left&quot;&gt;skill&lt;/li&gt;&lt;li style=&quot;text-align: left&quot;&gt;weight&lt;/li&gt;&lt;li style=&quot;text-align: left&quot;&gt;dynamic match stats&lt;/li&gt;&lt;li style=&quot;text-align: left&quot;&gt;&lt;br&gt;&lt;/li&gt;&lt;/ul&gt;" style="rounded=0;whiteSpace=wrap;html=1;" vertex="1" parent="1">
          <mxGeometry x="570" y="40" width="220" height="240" as="geometry" />
        </mxCell>
        <mxCell id="I17-rHQZrSn2T5uz6WZd-2" value="Class: Tournament&lt;br&gt;&lt;div style=&quot;text-align: left&quot;&gt;&lt;span&gt;Props:&lt;/span&gt;&lt;br&gt;&lt;/div&gt;&lt;ul&gt;&lt;li style=&quot;text-align: left&quot;&gt;&lt;span&gt;UID&lt;/span&gt;&lt;/li&gt;&lt;li style=&quot;text-align: left&quot;&gt;&lt;span&gt;name (req. str)&lt;/span&gt;&lt;/li&gt;&lt;li style=&quot;text-align: left&quot;&gt;date (req. date)&lt;/li&gt;&lt;li style=&quot;text-align: left&quot;&gt;type (sing elim / round robin)&lt;/li&gt;&lt;li style=&quot;text-align: left&quot;&gt;rule set dropdown&lt;/li&gt;&lt;ul&gt;&lt;li style=&quot;text-align: left&quot;&gt;EBI (bool)&lt;/li&gt;&lt;li style=&quot;text-align: left&quot;&gt;Pts (bool)&lt;/li&gt;&lt;li style=&quot;text-align: left&quot;&gt;Sub only (bool)&lt;/li&gt;&lt;/ul&gt;&lt;li style=&quot;text-align: left&quot;&gt;match time limit&lt;/li&gt;&lt;li style=&quot;text-align: left&quot;&gt;players (list)&lt;/li&gt;&lt;li style=&quot;text-align: left&quot;&gt;fee (optional, num dec)&lt;/li&gt;&lt;li style=&quot;text-align: left&quot;&gt;prizes&lt;/li&gt;&lt;li style=&quot;text-align: left&quot;&gt;rounds (list of matches for each round)&lt;/li&gt;&lt;li style=&quot;text-align: left&quot;&gt;ranking&lt;/li&gt;&lt;li style=&quot;text-align: left&quot;&gt;&lt;br&gt;&lt;/li&gt;&lt;/ul&gt;" style="rounded=0;whiteSpace=wrap;html=1;" vertex="1" parent="1">
          <mxGeometry x="40" y="40" width="220" height="300" as="geometry" />
        </mxCell>
        <mxCell id="I17-rHQZrSn2T5uz6WZd-4" value="Class: Team&lt;br&gt;&lt;div style=&quot;text-align: left&quot;&gt;&lt;span&gt;Props:&lt;/span&gt;&lt;/div&gt;&lt;ul&gt;&lt;li style=&quot;text-align: left&quot;&gt;&lt;span&gt;UID&lt;/span&gt;&lt;/li&gt;&lt;li style=&quot;text-align: left&quot;&gt;&lt;span&gt;name (req. str)&lt;/span&gt;&lt;/li&gt;&lt;li style=&quot;text-align: left&quot;&gt;location (req. date)&lt;/li&gt;&lt;li style=&quot;text-align: left&quot;&gt;affiliated locations&lt;/li&gt;&lt;li style=&quot;text-align: left&quot;&gt;&lt;br&gt;&lt;/li&gt;&lt;/ul&gt;" style="rounded=0;whiteSpace=wrap;html=1;" vertex="1" parent="1">
          <mxGeometry x="570" y="290" width="220" height="140" as="geometry" />
        </mxCell>
        <mxCell id="I17-rHQZrSn2T5uz6WZd-5" value="Class: Ranking&lt;br&gt;&lt;div style=&quot;text-align: left&quot;&gt;Props&lt;/div&gt;&lt;ul&gt;&lt;li style=&quot;text-align: left&quot;&gt;place (int)&lt;/li&gt;&lt;li style=&quot;text-align: left&quot;&gt;name (str)&lt;/li&gt;&lt;li style=&quot;text-align: left&quot;&gt;prize amount (int dec)&lt;/li&gt;&lt;li style=&quot;text-align: left&quot;&gt;prize percent (int)&lt;/li&gt;&lt;li style=&quot;text-align: left&quot;&gt;&lt;br&gt;&lt;/li&gt;&lt;/ul&gt;" style="rounded=0;whiteSpace=wrap;html=1;" vertex="1" parent="1">
          <mxGeometry x="303.5" y="40" width="220" height="140" as="geometry" />
        </mxCell>
        <mxCell id="I17-rHQZrSn2T5uz6WZd-6" value="Class: Match&lt;br&gt;&lt;div style=&quot;text-align: left&quot;&gt;&lt;span&gt;Props:&lt;/span&gt;&lt;/div&gt;&lt;ul&gt;&lt;li style=&quot;text-align: left&quot;&gt;&lt;span&gt;entries (list)&lt;/span&gt;&lt;/li&gt;&lt;li style=&quot;text-align: left&quot;&gt;&lt;span&gt;winner (player)&lt;/span&gt;&lt;/li&gt;&lt;li style=&quot;text-align: left&quot;&gt;round&lt;/li&gt;&lt;li style=&quot;text-align: left&quot;&gt;win condition (str)&lt;/li&gt;&lt;li style=&quot;text-align: left&quot;&gt;time&lt;/li&gt;&lt;li style=&quot;text-align: left&quot;&gt;&lt;br&gt;&lt;/li&gt;&lt;/ul&gt;" style="rounded=0;whiteSpace=wrap;html=1;" vertex="1" parent="1">
          <mxGeometry x="303.5" y="190" width="220" height="150" as="geometry" />
        </mxCell>
      </root>
    </mxGraphModel>
  </diagram>
</mxfile>
